<?xml version="1.0" encoding="iso-8859-1"?>
<!-- Generator: Adobe Illustrator 19.0.0, SVG Export Plug-In . SVG Version: 6.00 Build 0)  -->
<svg version="1.1" id="Layer_1" xmlns="http://www.w3.org/2000/svg" xmlns:xlink="http://www.w3.org/1999/xlink" x="0px" y="0px"
	 viewBox="0 0 511.999 511.999" style="enable-background:new 0 0 511.999 511.999;" xml:space="preserve">
<circle style="fill:#CEE8FA;" cx="255.999" cy="122.02" r="58.619"/>
<g>
	<path style="fill:#2D527C;" d="M256.001,194.826c-40.144,0-72.803-32.659-72.803-72.803s32.659-72.803,72.803-72.803
		s72.803,32.659,72.803,72.803S296.145,194.826,256.001,194.826z M256.001,77.591c-24.499,0-44.43,19.932-44.43,44.43
		s19.932,44.43,44.43,44.43c24.498,0,44.43-19.932,44.43-44.43S280.5,77.591,256.001,77.591z"/>
	<path style="fill:#2D527C;" d="M328.313,234.937c-2.602,0-5.235-0.715-7.596-2.216c-6.612-4.202-8.567-12.969-4.364-19.582
		c21.836-34.36,32.906-65.148,32.906-91.508c0-51.422-41.835-93.258-93.259-93.258c-20.007,0-39.074,6.238-55.141,18.04
		c-6.313,4.636-15.193,3.281-19.832-3.036c-4.639-6.314-3.28-15.194,3.036-19.832C205.034,8.142,229.91,0,256.001,0
		c67.068,0,121.632,54.563,121.632,121.631c0,31.836-12.561,67.744-37.334,106.725C337.597,232.61,333.005,234.937,328.313,234.937z
		"/>
</g>
<g>
	<circle style="fill:#CEE8FA;" cx="255.999" cy="337.487" r="32.814"/>
	<circle style="fill:#CEE8FA;" cx="138.08" cy="421.444" r="32.814"/>
</g>
<path style="fill:#2D527C;" d="M483.087,257.048c-2.66-2.66-6.268-4.154-10.03-4.154c-0.001,0-0.003,0-0.003,0l-179.04,0.041
	c-0.123,0-0.245,0.017-0.369,0.02c-0.343,0.01-0.685,0.023-1.027,0.057c-0.189,0.018-0.376,0.05-0.563,0.075
	c-0.298,0.041-0.594,0.088-0.89,0.148c-0.19,0.04-0.379,0.085-0.566,0.132c-0.292,0.072-0.582,0.153-0.871,0.244
	c-0.176,0.055-0.349,0.113-0.522,0.176c-0.299,0.108-0.593,0.227-0.885,0.355c-0.153,0.067-0.306,0.133-0.458,0.206
	c-0.306,0.148-0.604,0.311-0.901,0.481c-0.131,0.075-0.262,0.145-0.39,0.223c-0.305,0.189-0.6,0.396-0.892,0.609
	c-0.111,0.081-0.226,0.155-0.335,0.238c-0.299,0.231-0.586,0.484-0.87,0.742c-0.089,0.082-0.186,0.156-0.274,0.24
	c-0.362,0.348-0.709,0.714-1.038,1.105c-1.307,1.553-2.6,3.069-3.877,4.55c-0.061,0.069-0.119,0.138-0.18,0.209
	c-1.214,1.407-2.415,2.781-3.593,4.118c-0.096,0.109-0.193,0.217-0.289,0.326c-1.148,1.299-2.278,2.565-3.386,3.795
	c-0.099,0.111-0.199,0.22-0.298,0.329c-1.098,1.216-2.175,2.396-3.227,3.54c-0.099,0.108-0.199,0.216-0.297,0.322
	c-1.053,1.142-2.08,2.246-3.077,3.31c-0.081,0.087-0.163,0.174-0.244,0.26c-1.027,1.094-2.026,2.145-2.989,3.152
	c-0.035,0.037-0.071,0.075-0.106,0.112c-2.013,2.105-3.879,4.016-5.56,5.716c-0.004,0.004-0.008,0.009-0.013,0.013
	c-25.535-25.915-93.283-100.832-93.283-166.109c0-10.969,1.884-21.707,5.598-31.912c2.681-7.361-1.115-15.505-8.478-18.183
	c-7.36-2.683-15.505,1.115-18.183,8.478c-4.852,13.326-7.31,27.328-7.31,41.618c0,70.081,61.87,144.453,93.71,178.09
	c-11.562,8.57-19.073,22.309-19.073,37.772c0,24.641,19.068,44.898,43.221,46.829l44.277,22.938H182.873
	c-6.031-18.999-23.832-32.807-44.802-32.807c-25.913,0-46.993,21.08-46.993,46.993c0,25.913,21.08,46.995,46.993,46.995
	c20.969,0,38.771-13.808,44.802-32.808h132.345c6.029,19,23.831,32.808,44.8,32.808c25.913,0,46.995-21.081,46.995-46.995
	c0-25.913-21.081-46.993-46.995-46.993c-13.875,0-26.36,6.048-34.97,15.641l-36.393-18.854c8.833-8.549,14.34-20.514,14.34-33.747
	c0-15.463-7.51-29.202-19.071-37.772c0.411-0.434,0.833-0.882,1.254-1.331c0.109-0.116,0.216-0.228,0.326-0.346
	c0.619-0.66,1.247-1.332,1.887-2.02c0.061-0.065,0.123-0.133,0.184-0.199c0.567-0.611,1.141-1.233,1.724-1.866
	c0.173-0.189,0.35-0.383,0.525-0.575c0.48-0.522,0.96-1.05,1.448-1.586c0.207-0.228,0.419-0.461,0.628-0.692
	c0.455-0.502,0.912-1.009,1.375-1.524c0.238-0.265,0.48-0.533,0.719-0.802c0.451-0.505,0.907-1.014,1.365-1.531
	c0.24-0.27,0.481-0.54,0.722-0.813c0.467-0.528,0.936-1.061,1.409-1.599c0.243-0.275,0.484-0.549,0.726-0.828
	c0.515-0.589,1.036-1.187,1.558-1.789c0.196-0.226,0.389-0.447,0.585-0.674c0.069-0.081,0.138-0.157,0.207-0.238l158.303-0.037
	v202.356H53.13V281.266h61.003c7.834,0,14.187-6.353,14.187-14.187s-6.353-14.187-14.187-14.187H38.943
	c-7.834,0-14.187,6.353-14.187,14.187v230.732c0,7.834,6.353,14.187,14.187,14.187h434.112c7.834,0,14.187-6.353,14.187-14.187
	V267.08C487.243,263.319,485.748,259.71,483.087,257.048z M256.001,318.872c10.267,0,18.621,8.355,18.621,18.621
	c0,10.267-8.355,18.62-18.621,18.62c-10.267,0-18.621-8.353-18.621-18.62S245.734,318.872,256.001,318.872z M138.073,440.068
	c-10.267,0-18.62-8.355-18.62-18.621c0-10.267,8.353-18.62,18.62-18.62c10.267,0,18.621,8.353,18.621,18.62
	C156.694,431.713,148.341,440.068,138.073,440.068z M360.019,402.826c10.267,0,18.621,8.353,18.621,18.62
	c0,10.267-8.355,18.621-18.621,18.621s-18.62-8.355-18.62-18.621C341.399,411.18,349.752,402.826,360.019,402.826z"/>
<g>
</g>
<g>
</g>
<g>
</g>
<g>
</g>
<g>
</g>
<g>
</g>
<g>
</g>
<g>
</g>
<g>
</g>
<g>
</g>
<g>
</g>
<g>
</g>
<g>
</g>
<g>
</g>
<g>
</g>
</svg>
